PathFileType	4	(X/Y/Z)	Gait_media_markers.trc
DataRate	CameraRate	NumFrames	NumMarkers	Units	OrigDataRate	OrigDataStartFrame	OrigNumFrames
100	100	9	38	m	100	70	92
Frame#	Time	RASI			RPSI			LPSI			LASI			RTROCH			RTHI			RTHI2			RTHI3			RTHI4			RKNE			RKNEM			RTIB			RTIB2			RTIB3			RTIB4			RANK			RANKM			RHEE			RTOE			RTOEL			RTOEM			LTROCH			LTHI			LTHI2			LTHI3			LTHI4			LKNE			LKNEM			LTIB			LTIB2			LTIB3			LTIB4			LANK			LANKM			LHEE			LTOE			LTOEL			LTOEM
		X1	Y1	Z1	X2	Y2	Z2	X3	Y3	Z3	X4	Y4	Z4	X5	Y5	Z5	X6	Y6	Z6	X7	Y7	Z7	X8	Y8	Z8	X9	Y9	Z9	X10	Y10	Z10	X11	Y11	Z11	X12	Y12	Z12	X13	Y13	Z13	X14	Y14	Z14	X15	Y15	Z15	X16	Y16	Z16	X17	Y17	Z17	X18	Y18	Z18	X19	Y19	Z19	X20	Y20	Z20	X21	Y21	Z21	X22	Y22	Z22	X23	Y23	Z23	X24	Y24	Z24	X25	Y25	Z25	X26	Y26	Z26	X27	Y27	Z27	X28	Y28	Z28	X29	Y29	Z29	X30	Y30	Z30	X31	Y31	Z31	X32	Y32	Z32	X33	Y33	Z33	X34	Y34	Z34	X35	Y35	Z35	X36	Y36	Z36	X37	Y37	Z37	X38	Y38	Z38

70	0.690000	-0.323128	0.945347	-0.020896	-0.262543	0.984822	-0.203428	-0.166701	0.974805	-0.196604	-0.097031	0.945436	-0.012131	-0.388421	0.871349	-0.076580	-0.400681	0.751199	-0.046744	-0.378196	0.770303	0.014502	-0.371766	0.695730	0.049567	-0.392366	0.671478	-0.008946	-0.360253	0.533146	0.051017	-0.245796	0.530967	0.034776	-0.385311	0.402070	0.071317	-0.357399	0.425918	0.125052	-0.356689	0.346634	0.163369	-0.386098	0.326844	0.104944	-0.341130	0.121461	0.203957	-0.269918	0.149678	0.227653	-0.297526	0.046754	0.183699	-0.317151	0.170277	0.383768	-0.370123	0.114383	0.359593	-0.257360	0.145122	0.376715	-0.047425	0.879714	-0.095465	-0.052686	0.673535	-0.111504	-0.077615	0.662536	-0.057809	-0.094764	0.585644	-0.084822	-0.069570	0.592728	-0.142094	-0.092959	0.508194	-0.153263	-0.197640	0.534858	-0.167185	-0.074725	0.305980	-0.255164	-0.113742	0.294842	-0.205516	-0.122271	0.215805	-0.243159	-0.084296	0.230578	-0.289394	-0.112299	0.108933	-0.339503	-0.194898	0.128322	-0.329098	-0.146683	0.068843	-0.416369	-0.159110	0.053710	-0.179206	-0.099544	0.044099	-0.219075	-0.208934	0.048415	-0.206920
71	0.700000	-0.323777	0.944008	-0.009323	-0.263638	0.982938	-0.191815	-0.167783	0.973054	-0.185330	-0.097175	0.943798	-0.001233	-0.389103	0.869716	-0.065069	-0.400127	0.749432	-0.034433	-0.380910	0.769758	0.027051	-0.373429	0.695505	0.062981	-0.391091	0.668269	0.007382	-0.359484	0.532024	0.064417	-0.245119	0.531869	0.051965	-0.383465	0.400600	0.084310	-0.356511	0.424106	0.138468	-0.355711	0.343575	0.175583	-0.384221	0.325011	0.116687	-0.339288	0.118668	0.212986	-0.268137	0.146069	0.237717	-0.295338	0.043898	0.192159	-0.317958	0.165948	0.393489	-0.371119	0.110965	0.367501	-0.258596	0.139616	0.387232	-0.047953	0.878348	-0.085136	-0.053607	0.672688	-0.102660	-0.077944	0.661282	-0.049150	-0.095533	0.584695	-0.076435	-0.070484	0.592009	-0.133648	-0.093745	0.507477	-0.145623	-0.198642	0.534275	-0.158450	-0.075352	0.306400	-0.250685	-0.114271	0.294826	-0.201180	-0.123025	0.216916	-0.240828	-0.084869	0.232042	-0.286250	-0.112513	0.111319	-0.338388	-0.194815	0.129718	-0.326622	-0.146980	0.071754	-0.415202	-0.159176	0.053200	-0.178998	-0.099744	0.044274	-0.218954	-0.209271	0.048254	-0.206688
72	0.710000	-0.324285	0.942629	0.002561	-0.265028	0.981334	-0.180374	-0.169174	0.971643	-0.174197	-0.097315	0.942258	0.009658	-0.389515	0.868297	-0.052975	-0.399978	0.747802	-0.021543	-0.382384	0.769035	0.040285	-0.374952	0.695234	0.076939	-0.391323	0.667229	0.021495	-0.358103	0.531476	0.079085	-0.244385	0.532588	0.069124	-0.382069	0.399592	0.097944	-0.354705	0.421744	0.152599	-0.353630	0.340928	0.187991	-0.382583	0.323220	0.128891	-0.337455	0.115282	0.219810	-0.266241	0.141549	0.245583	-0.293240	0.040128	0.198264	-0.318866	0.159667	0.400886	-0.371842	0.105579	0.372745	-0.263412	0.130254	0.396595	-0.048266	0.877186	-0.074718	-0.054366	0.671960	-0.093441	-0.078712	0.660236	-0.039693	-0.095696	0.583668	-0.067664	-0.071295	0.591433	-0.124903	-0.094477	0.506991	-0.137342	-0.199537	0.533739	-0.149020	-0.076049	0.307349	-0.245724	-0.114550	0.294407	-0.196331	-0.122437	0.218222	-0.236366	-0.085440	0.233588	-0.282666	-0.112657	0.113318	-0.336640	-0.195035	0.131566	-0.324438	-0.147255	0.075270	-0.414109	-0.159430	0.052560	-0.178819	-0.099885	0.044526	-0.218761	-0.209596	0.048163	-0.206350
73	0.720000	-0.324767	0.941348	0.014608	-0.266039	0.979784	-0.168484	-0.170137	0.970446	-0.162635	-0.097394	0.940726	0.020724	-0.390176	0.866820	-0.040964	-0.400282	0.746499	-0.008475	-0.384340	0.767886	0.053865	-0.376142	0.694445	0.090643	-0.392655	0.668149	0.032950	-0.356435	0.531196	0.094285	-0.242594	0.532279	0.086631	-0.381006	0.398552	0.111573	-0.352423	0.419146	0.166952	-0.351174	0.337549	0.200299	-0.380976	0.321728	0.141172	-0.335664	0.110913	0.224308	-0.264292	0.136097	0.251276	-0.291190	0.035864	0.201611	-0.319496	0.151508	0.406313	-0.372220	0.099018	0.375910	-0.263683	0.122344	0.402651	-0.048747	0.876146	-0.064224	-0.055216	0.671113	-0.083874	-0.079070	0.659138	-0.030067	-0.096418	0.582544	-0.057927	-0.071925	0.590828	-0.115673	-0.095288	0.506137	-0.128439	-0.200532	0.532898	-0.138956	-0.076672	0.308605	-0.240510	-0.114951	0.294223	-0.191040	-0.122581	0.218964	-0.232627	-0.086017	0.235389	-0.278790	-0.112779	0.116019	-0.334793	-0.195265	0.133600	-0.321942	-0.147207	0.078372	-0.411837	-0.159651	0.051995	-0.178747	-0.100414	0.044602	-0.218577	-0.209898	0.048201	-0.206078
74	0.730000	-0.325080	0.940046	0.027310	-0.267159	0.978186	-0.156028	-0.171467	0.969271	-0.150804	-0.097112	0.939516	0.032066	-0.390202	0.865364	-0.027595	-0.401015	0.744883	0.004869	-0.386155	0.766948	0.067423	-0.376434	0.693437	0.104197	-0.392036	0.665041	0.049947	-0.354582	0.531250	0.109557	-0.242444	0.532095	0.101601	-0.379704	0.397839	0.125579	-0.349896	0.416353	0.180724	-0.348605	0.332801	0.210988	-0.379754	0.319780	0.152367	-0.333918	0.107264	0.227297	-0.262482	0.130823	0.255152	-0.290292	0.035854	0.203014	-0.319093	0.142009	0.410396	-0.373094	0.091933	0.377753	-0.261569	0.114325	0.406123	-0.049137	0.875365	-0.053725	-0.055955	0.670113	-0.073929	-0.078992	0.657851	-0.019929	-0.096534	0.581315	-0.047799	-0.072873	0.589888	-0.105797	-0.096099	0.505304	-0.118886	-0.201375	0.532041	-0.127923	-0.077389	0.309493	-0.234446	-0.115298	0.294109	-0.185236	-0.122663	0.219718	-0.228533	-0.086477	0.237284	-0.274295	-0.112845	0.119460	-0.332998	-0.195379	0.135833	-0.319195	-0.147843	0.083588	-0.411141	-0.159794	0.051445	-0.178745	-0.100177	0.044854	-0.217838	-0.210115	0.048158	-0.205525
75	0.740000	-0.325155	0.938685	0.040351	-0.268348	0.976721	-0.143496	-0.172890	0.968168	-0.138693	-0.097299	0.938536	0.043547	-0.391953	0.864193	-0.015960	-0.401780	0.743084	0.018609	-0.387881	0.765866	0.080764	-0.378955	0.692632	0.118815	-0.392254	0.664352	0.063122	-0.352480	0.531197	0.124997	-0.241837	0.531817	0.115500	-0.378274	0.396495	0.138553	-0.347283	0.413187	0.193692	-0.345865	0.329702	0.221713	-0.378486	0.317709	0.162441	-0.332527	0.103447	0.230359	-0.260595	0.125684	0.258284	-0.288706	0.036905	0.204415	-0.318403	0.133857	0.415106	-0.373030	0.085588	0.380509	-0.264105	0.103146	0.411238	-0.050202	0.873577	-0.042441	-0.056611	0.669013	-0.063751	-0.078961	0.656569	-0.009363	-0.096458	0.580149	-0.037257	-0.073650	0.589036	-0.095670	-0.096932	0.504145	-0.108599	-0.202430	0.530885	-0.116330	-0.078050	0.310787	-0.228090	-0.115520	0.293644	-0.178936	-0.122728	0.220495	-0.223939	-0.087800	0.240128	-0.270654	-0.112854	0.122139	-0.330491	-0.195412	0.138144	-0.315704	-0.147971	0.088231	-0.409043	-0.159993	0.050895	-0.178734	-0.100186	0.045171	-0.216918	-0.210350	0.048239	-0.205044
76	0.750000	-0.325201	0.937489	0.053665	-0.269606	0.975400	-0.130726	-0.174420	0.967275	-0.126616	-0.097219	0.937470	0.055193	-0.392564	0.862644	-0.001946	-0.402074	0.741960	0.031533	-0.389177	0.764863	0.094338	-0.379712	0.692464	0.132337	-0.392543	0.664652	0.074747	-0.350418	0.531013	0.139338	-0.240813	0.531253	0.127952	-0.376661	0.395128	0.150524	-0.345181	0.410334	0.205644	-0.343805	0.325447	0.230899	-0.377006	0.315758	0.172432	-0.330647	0.100625	0.235052	-0.258238	0.121706	0.262941	-0.287805	0.038324	0.207013	-0.316634	0.126463	0.419783	-0.371776	0.080288	0.384299	-0.262864	0.094625	0.415644	-0.050506	0.873258	-0.031863	-0.057376	0.667997	-0.053096	-0.078403	0.655622	0.001507	-0.096275	0.578839	-0.025897	-0.074291	0.587826	-0.084799	-0.097768	0.502879	-0.097573	-0.202992	0.529746	-0.103390	-0.078703	0.311811	-0.220863	-0.115897	0.293853	-0.172252	-0.122936	0.219964	-0.218661	-0.088358	0.242681	-0.265538	-0.112226	0.126501	-0.327714	-0.195473	0.141557	-0.312486	-0.148194	0.093596	-0.406725	-0.160160	0.050380	-0.178536	-0.100272	0.045167	-0.216325	-0.210402	0.048450	-0.204567
77	0.760000	-0.325131	0.936616	0.067259	-0.271132	0.974245	-0.117928	-0.175896	0.966256	-0.114026	-0.096875	0.936531	0.067202	-0.392760	0.861680	0.012435	-0.401967	0.740847	0.045407	-0.389156	0.763923	0.107670	-0.379014	0.691010	0.145975	-0.391232	0.662371	0.090177	-0.348987	0.530311	0.151788	-0.240217	0.530845	0.139079	-0.375325	0.393972	0.161823	-0.343482	0.408415	0.216513	-0.341793	0.324063	0.241651	-0.375633	0.314315	0.182512	-0.330217	0.099655	0.241887	-0.256512	0.119321	0.269402	-0.287348	0.040720	0.210153	-0.313747	0.120053	0.426152	-0.369715	0.074922	0.388951	-0.261097	0.087660	0.419835	-0.051300	0.872293	-0.020575	-0.058309	0.666959	-0.041901	-0.078508	0.654533	0.013251	-0.096394	0.577813	-0.013830	-0.076354	0.586117	-0.072070	-0.098646	0.501651	-0.085711	-0.204440	0.528286	-0.089706	-0.079307	0.313238	-0.213017	-0.116215	0.293717	-0.164786	-0.122501	0.221274	-0.212876	-0.088863	0.245136	-0.259487	-0.112322	0.130676	-0.324826	-0.195348	0.144816	-0.308247	-0.148381	0.099480	-0.403779	-0.160112	0.049962	-0.178199	-0.100174	0.046122	-0.215812	-0.210354	0.048646	-0.204078
78	0.770000	-0.325050	0.936209	0.080511	-0.272470	0.973831	-0.105142	-0.177328	0.965440	-0.101472	-0.096524	0.935599	0.079173	-0.393158	0.861262	0.026852	-0.401749	0.740770	0.059223	-0.387977	0.764051	0.121166	-0.378054	0.690702	0.158552	-0.391120	0.663637	0.100629	-0.348459	0.529628	0.162977	-0.239678	0.529397	0.148124	-0.375149	0.393116	0.172900	-0.342277	0.407827	0.227135	-0.340276	0.322438	0.251098	-0.375140	0.313767	0.193561	-0.329672	0.098953	0.249106	-0.255844	0.117600	0.276082	-0.287574	0.043423	0.213588	-0.310763	0.112255	0.432816	-0.367027	0.068860	0.393921	-0.258945	0.079381	0.424320	-0.052022	0.871474	-0.009052	-0.059501	0.666037	-0.029891	-0.078823	0.653910	0.025615	-0.096654	0.576699	-0.000909	-0.077464	0.585048	-0.059656	-0.099318	0.500529	-0.072834	-0.205690	0.526775	-0.074925	-0.080526	0.315477	-0.205336	-0.116118	0.293891	-0.156598	-0.123164	0.222599	-0.207023	-0.089106	0.248302	-0.252449	-0.112899	0.134416	-0.321558	-0.195099	0.148560	-0.303225	-0.148867	0.106330	-0.400457	-0.160034	0.049939	-0.177799	-0.100569	0.046109	-0.215438	-0.210007	0.049082	-0.203551
